<svg width="1741" height="247" viewBox="0 0 1741 247" fill="none" xmlns="http://www.w3.org/2000/svg">
<g clip-path="url(#clip0_10766_184)">
<path d="M441.451 121.739C441.451 99.0281 423.02 80.6085 400.31 80.6192C377.6 80.6192 359.18 99.0494 359.191 121.76C359.191 144.47 377.61 162.879 400.321 162.879C423.031 162.879 441.451 144.46 441.451 121.749V121.739ZM638.998 121.739C638.966 163.039 605.449 196.492 564.149 196.46C533.432 196.439 505.845 177.626 494.612 149.038L523.083 120.567V121.749C523.136 144.428 541.566 162.762 564.245 162.698C586.923 162.634 605.257 144.215 605.194 121.536C605.14 98.8578 586.71 80.5234 564.032 80.5872C553.182 80.6192 542.78 84.9313 535.114 92.6079L453.493 174.272C424.554 203.669 377.259 204.041 347.851 175.102C333.552 161.027 325.524 141.798 325.556 121.739V16.8214C326.131 7.52638 334.127 0.467307 343.412 1.03161C351.908 1.55332 358.669 8.32492 359.201 16.8214V58.7818C393.698 36.0714 440.077 45.6326 462.788 80.1294C467.994 88.0403 471.646 96.8668 473.563 106.14L511.339 68.3749C540.533 39.1698 587.881 39.1591 617.086 68.3537C631.237 82.5037 639.137 101.733 638.998 121.739ZM314.355 121.739C314.43 162.996 281.051 196.514 239.783 196.588C208.949 196.652 181.245 177.753 170.044 149.038L198.514 120.567V121.749C198.568 144.428 216.998 162.762 239.676 162.698C262.355 162.645 280.689 144.215 280.625 121.536C280.572 98.8578 262.142 80.5234 239.463 80.5872C228.614 80.6192 218.212 84.9313 210.546 92.6079L128.637 174.591C99.4317 203.786 52.0838 203.775 22.8892 174.57C-6.30529 145.365 -6.29464 98.0167 22.9105 68.8221C52.1051 39.6382 99.4424 39.6382 128.637 68.8221C135.206 75.4234 135.174 86.1131 128.562 92.6718C121.961 99.2411 111.271 99.2091 104.713 92.5973C88.6249 76.5626 62.5819 76.6052 46.5473 92.6931C30.5126 108.781 30.5552 134.824 46.6431 150.859C62.699 166.861 88.6675 166.861 104.713 150.859L186.76 68.5985C215.901 39.3934 263.206 39.3401 292.422 68.4814C306.562 82.5889 314.462 101.775 314.355 121.76V121.728V121.739Z" fill="#1F32D6"/>
<path d="M798.778 83.428C798.778 96.268 794.569 106.611 786.152 114.458C777.735 122.305 765.109 126.228 748.274 126.228H718.1V190H703.12V40.414H748.274C764.966 40.414 777.521 44.3373 785.938 52.184C794.498 60.0307 798.778 70.4453 798.778 83.428ZM748.274 113.388C771.671 113.388 783.37 103.401 783.37 83.428C783.37 73.4413 780.588 65.88 775.024 60.744C769.46 55.608 760.543 53.04 748.274 53.04H718.1V113.388H748.274ZM817.065 131.364C817.065 119.38 819.419 108.894 824.127 99.906C828.978 90.7753 835.612 83.7847 844.029 78.934C852.589 73.9407 862.219 71.444 872.919 71.444C884.047 71.444 893.606 74.012 901.595 79.148C909.727 84.284 915.576 90.8467 919.143 98.836V73.156H934.123V190H919.143V164.106C915.434 172.095 909.513 178.729 901.381 184.008C893.392 189.144 883.833 191.712 872.705 191.712C862.148 191.712 852.589 189.215 844.029 184.222C835.612 179.229 828.978 172.167 824.127 163.036C819.419 153.905 817.065 143.348 817.065 131.364ZM919.143 131.578C919.143 122.162 917.217 113.887 913.365 106.754C909.513 99.6207 904.234 94.128 897.529 90.276C890.966 86.424 883.69 84.498 875.701 84.498C867.426 84.498 860.008 86.3527 853.445 90.062C846.882 93.7713 841.675 99.1927 837.823 106.326C834.114 113.317 832.259 121.663 832.259 131.364C832.259 140.923 834.114 149.34 837.823 156.616C841.675 163.749 846.882 169.242 853.445 173.094C860.008 176.803 867.426 178.658 875.701 178.658C883.69 178.658 890.966 176.732 897.529 172.88C904.234 169.028 909.513 163.535 913.365 156.402C917.217 149.269 919.143 140.994 919.143 131.578ZM1064.62 73.156L995.285 244.998H979.663L1002.35 189.358L954.411 73.156H970.889L1010.69 172.88L1049.21 73.156H1064.62ZM1224.03 71.016C1237.73 71.016 1248.86 75.3673 1257.42 84.07C1266.12 92.63 1270.47 105.113 1270.47 121.52V190H1255.71V123.232C1255.71 110.535 1252.64 100.833 1246.5 94.128C1240.37 87.4227 1232.02 84.07 1221.47 84.07C1210.48 84.07 1201.71 87.708 1195.14 94.984C1188.58 102.26 1185.3 112.817 1185.3 126.656V190H1170.53V123.232C1170.53 110.535 1167.47 100.833 1161.33 94.128C1155.2 87.4227 1146.78 84.07 1136.08 84.07C1125.1 84.07 1116.32 87.708 1109.76 94.984C1103.2 102.26 1099.91 112.817 1099.91 126.656V190H1084.93V73.156H1099.91V93.272C1103.62 85.996 1108.9 80.5033 1115.75 76.794C1122.6 72.942 1130.23 71.016 1138.65 71.016C1148.78 71.016 1157.62 73.4413 1165.18 78.292C1172.89 83.1427 1178.45 90.276 1181.88 99.692C1185.02 90.4187 1190.37 83.3567 1197.93 78.506C1205.63 73.5127 1214.33 71.016 1224.03 71.016ZM1409.46 125.586C1409.46 130.722 1409.31 134.645 1409.03 137.356H1312.09C1312.52 146.201 1314.66 153.763 1318.51 160.04C1322.36 166.317 1327.42 171.097 1333.7 174.378C1339.98 177.517 1346.83 179.086 1354.25 179.086C1363.95 179.086 1372.08 176.732 1378.64 172.024C1385.35 167.316 1389.77 160.967 1391.91 152.978H1407.75C1404.89 164.391 1398.76 173.736 1389.34 181.012C1380.07 188.145 1368.37 191.712 1354.25 191.712C1343.26 191.712 1333.42 189.287 1324.71 184.436C1316.01 179.443 1309.16 172.452 1304.17 163.464C1299.32 154.333 1296.89 143.705 1296.89 131.578C1296.89 119.451 1299.32 108.823 1304.17 99.692C1309.02 90.5613 1315.8 83.5707 1324.5 78.72C1333.2 73.8693 1343.12 71.444 1354.25 71.444C1365.37 71.444 1375.07 73.8693 1383.35 78.72C1391.77 83.5707 1398.19 90.1333 1402.61 98.408C1407.17 106.54 1409.46 115.599 1409.46 125.586ZM1394.26 125.158C1394.41 116.455 1392.62 109.037 1388.91 102.902C1385.35 96.7673 1380.42 92.1307 1374.15 88.992C1367.87 85.8533 1361.02 84.284 1353.6 84.284C1342.48 84.284 1332.99 87.8507 1325.14 94.984C1317.29 102.117 1312.94 112.175 1312.09 125.158H1394.26ZM1491.65 71.016C1505.63 71.016 1517.04 75.3673 1525.89 84.07C1534.73 92.63 1539.16 105.113 1539.16 121.52V190H1524.39V123.232C1524.39 110.535 1521.18 100.833 1514.76 94.128C1508.48 87.4227 1499.85 84.07 1488.87 84.07C1477.6 84.07 1468.61 87.6367 1461.9 94.77C1455.2 101.903 1451.84 112.389 1451.84 126.228V190H1436.86V73.156H1451.84V93.058C1455.55 85.9247 1460.9 80.5033 1467.89 76.794C1474.88 72.942 1482.8 71.016 1491.65 71.016ZM1591.76 85.782V158.328C1591.76 165.461 1593.12 170.383 1595.83 173.094C1598.54 175.805 1603.32 177.16 1610.16 177.16H1623.86V190H1607.81C1597.25 190 1589.41 187.575 1584.27 182.724C1579.13 177.731 1576.57 169.599 1576.57 158.328V85.782H1560.3V73.156H1576.57V43.838H1591.76V73.156H1623.86V85.782H1591.76ZM1688.8 191.712C1675.39 191.712 1664.4 188.645 1655.84 182.51C1647.42 176.233 1642.72 167.744 1641.72 157.044H1657.13C1657.84 163.607 1660.91 168.957 1666.33 173.094C1671.89 177.089 1679.31 179.086 1688.58 179.086C1696.72 179.086 1703.06 177.16 1707.63 173.308C1712.34 169.456 1714.69 164.677 1714.69 158.97C1714.69 154.975 1713.41 151.694 1710.84 149.126C1708.27 146.558 1704.99 144.561 1701 143.134C1697.14 141.565 1691.86 139.924 1685.16 138.212C1676.46 135.929 1669.39 133.647 1663.97 131.364C1658.55 129.081 1653.92 125.729 1650.06 121.306C1646.35 116.741 1644.5 110.677 1644.5 103.116C1644.5 97.4093 1646.21 92.1307 1649.64 87.28C1653.06 82.4293 1657.91 78.5773 1664.19 75.724C1670.46 72.8707 1677.6 71.444 1685.59 71.444C1698.14 71.444 1708.27 74.654 1715.98 81.074C1723.68 87.3513 1727.82 96.054 1728.39 107.182H1713.41C1712.98 100.334 1710.27 94.8413 1705.28 90.704C1700.42 86.424 1693.72 84.284 1685.16 84.284C1677.6 84.284 1671.46 86.0673 1666.76 89.634C1662.05 93.2007 1659.69 97.6233 1659.69 102.902C1659.69 107.467 1661.05 111.248 1663.76 114.244C1666.61 117.097 1670.11 119.38 1674.25 121.092C1678.38 122.661 1683.95 124.445 1690.94 126.442C1699.35 128.725 1706.06 130.936 1711.05 133.076C1716.05 135.216 1720.33 138.355 1723.89 142.492C1727.46 146.629 1729.31 152.122 1729.46 158.97C1729.46 165.247 1727.75 170.883 1724.32 175.876C1720.9 180.727 1716.12 184.579 1709.98 187.432C1703.85 190.285 1696.79 191.712 1688.8 191.712Z" fill="#808080"/>
</g>
<defs>
<clipPath id="clip0_10766_184">
<rect width="1741" height="247" fill="white"/>
</clipPath>
</defs>
</svg>
